<svg xmlns="http://www.w3.org/2000/svg" width="242.179" height="165.001" viewBox="0 0 242.179 165.001"><defs><style>.a{fill:#f0c4a8;}.b{fill:#a9f0a8;}.c{fill:#cfa06d;}.d{fill:#6d8ecf;}.e{fill:#a8d9f0;}.f{fill:#afa8f0;}.g{fill:#f0d0a8;}.h{fill:#f0a8ae;}.i{fill:#f0eaa8;}.j{fill:#424242;}</style></defs><g transform="translate(-50.165 -53.5)"><path class="a" d="M128.158,62.686a2.223,2.223,0,0,1-.308,1.852,1.869,1.869,0,0,1-.56.479c-.838-.02-1.686-.045-2.529-.066a2.524,2.524,0,0,0-.106,2.16,2.323,2.323,0,0,0,.823.929c.106,2.408.2,4.8.308,7.213a10.318,10.318,0,0,1-1.852,1.332,9.855,9.855,0,0,1-1.544.727,15.48,15.48,0,0,1-.414,3.811,15.23,15.23,0,0,1-.722,2.266,5.844,5.844,0,0,0-2.887,2.367,6.358,6.358,0,0,0-.621,1.544,7.183,7.183,0,0,0-.2,2.165,8.619,8.619,0,0,0,.414,2.367,4.25,4.25,0,0,1-2.165,3.195c-.03,1.131-.066,2.266-.1,3.4l-1.035,1.035c-.066.545-.136,1.1-.2,1.65-.757.136-1.514.268-2.271.414-.2-.479-.4-.969-.616-1.449h-1.544a13.022,13.022,0,0,1-.929,1.237c-.727.878-1,.989-1.131,1.035a1.737,1.737,0,0,1-1.544-.212c-.283-.212-.278-.374-.722-1.343a8.87,8.87,0,0,1-.823-1.852,1.8,1.8,0,0,1,0-1.332,1.623,1.623,0,0,1,1.131-.727,2.3,2.3,0,0,0-.823-1.544,2.979,2.979,0,0,0-1.852-.308,29.935,29.935,0,0,1-3.4-.414c-2.2-.262-2.66-.343-3.4-.106a4.335,4.335,0,0,0-1.438.823c-.278-.242-.555-.479-.823-.722-1.686.136-3.367.278-5.052.414-.03.691-.066,1.373-.1,2.064-.495.591-.878,1.1-1.141,1.438a25.449,25.449,0,0,1-1.746,2.266,10.5,10.5,0,0,1-.929.929,5.286,5.286,0,0,1-.106,2.675,4.826,4.826,0,0,0-.4,1.343,3.488,3.488,0,0,0,.616,2.064c.555.838.974.752,1.237,1.438.106.278.081.4,0,1.756-.106,1.756-.081,1.868-.212,2.16A3.144,3.144,0,0,1,85,114.7a3.811,3.811,0,0,1-.52,2.473,4.047,4.047,0,0,1-1.958,1.544c-.9.323-1.529.126-1.852.621-.136.2-.091.323-.106,1.03-.02,1.635-.257,1.9,0,2.367a1.8,1.8,0,0,0,1.237.823q.1.878.212,1.756a3.677,3.677,0,0,0,1.852.823c.6.076.9-.066,1.332.1a2.374,2.374,0,0,1,1.237,1.544c-.091.313-.172.631-.262.944-.323,1.161-.651,2.327-.974,3.488q-2.392,5.852-4.805,11.7c-1.307-1.817-2.852-3.826-4.674-5.931a83.638,83.638,0,0,0-19.917-16.9c1.509-.02,3.023-.045,4.527-.066a1.517,1.517,0,0,0,.555-1.716,1.541,1.541,0,0,0-1.857-.893h-4.4v-2.064a4.042,4.042,0,0,0,3.912-2.2,1.808,1.808,0,0,0,1.514-.2,1.72,1.72,0,0,0,.616-.823c-.2-.066-.414-.141-.616-.212.045-1.03.091-2.064.136-3.089a1.637,1.637,0,0,0,.479-.691,1.855,1.855,0,0,0-.2-1.509c-.106-.172-.51-.868-1.1-.893-.5-.02-.712.474-1.575,1.171a7.329,7.329,0,0,1-1.716,1.03,5.018,5.018,0,0,1-2.887.278,3.826,3.826,0,0,1-2.408-1.378,4.091,4.091,0,0,1-.479-3.291,6,6,0,0,1,1.237-2.544,20.948,20.948,0,0,1,6.521-5.153c.136-.555.278-1.1.414-1.65-.111-1.741-.227-3.478-.343-5.219a6.7,6.7,0,0,1,.969-.691,7,7,0,0,1,1.918-.757,14.487,14.487,0,0,0,.545-1.438,20.1,20.1,0,0,1,.757-2.544,4.841,4.841,0,0,1,1.852-1.716c1.206-.8,2.009-1.332,3.023-1.307,1.085.03,1.484.681,3.78,2.064.959.575,1.772.989,2.271,1.237a1.557,1.557,0,0,0,1.232-.212,1.952,1.952,0,0,0,.49-1.787,5.621,5.621,0,0,0-.691-1.65,10.18,10.18,0,0,1-.616-2.064,8.179,8.179,0,0,1,.136-3.432c.328-1.469.575-2.589,1.58-3.361a3.984,3.984,0,0,1,2.675-.757c.434-.045.868-.091,1.307-.141.045-1.07.091-2.15.136-3.225q7.9.136,15.8.278a6.165,6.165,0,0,1,1.1,1.509,6.991,6.991,0,0,1,.681,2.342,12.173,12.173,0,0,1,.066,3.361l3.71-.136a28.49,28.49,0,0,0,3.71-3.155,29.33,29.33,0,0,0,2.544-2.953c.126-.969.308-2.281.545-3.846.51-3.306.7-3.957,1.03-4.674a11.344,11.344,0,0,1,2.408-3.23,9.053,9.053,0,0,1,3.568-2.609,7.709,7.709,0,0,1,2.2-.414c.323-.368.646-.727.969-1.1,1.918-.02,3.846-.045,5.764-.066l.136,2.544a20.2,20.2,0,0,1,3.1,3.639,5.806,5.806,0,0,0,1.509,1.852,5.892,5.892,0,0,0,1.423.757C129.223,62.434,128.693,62.56,128.158,62.686Z" transform="translate(0 0)"/><path class="b" d="M190.459,91.86a2.566,2.566,0,0,1-.48.823,15.942,15.942,0,0,1-.141,4.462,24.179,24.179,0,0,1-1.989,5.774c-.48,1.1-.924,1.989-1.237,2.609.02.914.02,1.883,0,2.887-.02.954-.076,1.868-.136,2.746a29.151,29.151,0,0,1,1.716,4.26,44.372,44.372,0,0,1,1.1,4.527c.061.278.121.585.2.909-1.307.262-2.6.515-3.907.782q-2.059.045-4.119.106a8.772,8.772,0,0,1-2.165,2.468,15.065,15.065,0,0,1-2.781,1.544c-1.56.787-2.408,1.221-3.4,1.756-3.059,1.655-3.462,2.165-3.71,2.675a2.7,2.7,0,0,1-.722,1.131,2.443,2.443,0,0,1-1.958.52,2.934,2.934,0,0,1-1.438-.823c-1.65-1.378-1.681-2.266-2.473-2.367a2.26,2.26,0,0,0-1.958,1.343,2.7,2.7,0,0,0-.106,2.16,8.149,8.149,0,0,1,.929,1.857,11.328,11.328,0,0,1,.414,2.266c.242,1.449,1.141,2.352,2.781,4.018a18.309,18.309,0,0,0,3.7,2.887c-.308.853-.616,1.716-.924,2.574-.106.893-.212,1.787-.313,2.675a21.835,21.835,0,0,0-5.355,4.845,7.92,7.92,0,0,1-3.3,2.993,7.136,7.136,0,0,1-2.983.414c-.944-.03-2.317-.076-2.685-.823-.2-.414.106-.616-.1-1.237-.242-.737-.767-.818-1.035-1.449a2.251,2.251,0,0,1,.106-1.746c.212-.929.414-1.852.616-2.781-.853-.212-1.716-.414-2.574-.621-1.454-1.156-2.731-2.085-3.71-2.781-2.458-1.731-3.21-2.064-4.018-2.266a5.314,5.314,0,0,0-3.7.106,8.493,8.493,0,0,0-1.544,1.03c-.782.666-.929,1.055-1.449,1.131a2.161,2.161,0,0,1-1.544-.616c-.868-.666-.737-1.161-1.438-1.544a2.362,2.362,0,0,0-1.958-.106c-.681.3-.691.8-1.343.929a2.31,2.31,0,0,1-1.237-.212c-.792-.278-.833-.545-1.131-.51-.722.091-1.509,1.842-1.438,3.4a2.214,2.214,0,0,1-.212,1.343,1.983,1.983,0,0,1-.823.722,3.448,3.448,0,0,1-2.574.106q-.257-3.407-.52-6.8-1.643-.977-3.3-1.958c-.167-.863-.338-1.716-.51-2.579-.57.005-1.141.015-1.711.015.091-.313.172-.631.262-.944a2.389,2.389,0,0,0-1.237-1.544c-.434-.167-.737-.02-1.332-.1a3.769,3.769,0,0,1-1.852-.823c-.076-.585-.141-1.171-.212-1.756a1.811,1.811,0,0,1-1.237-.823c-.257-.464-.02-.737,0-2.367.015-.707-.03-.833.106-1.03.323-.495.954-.3,1.852-.621a4.069,4.069,0,0,0,1.958-1.544,3.844,3.844,0,0,0,.52-2.473,3.093,3.093,0,0,0,1.438-1.544c.126-.293.106-.4.212-2.16.081-1.348.106-1.479,0-1.756-.262-.691-.681-.6-1.237-1.438a3.474,3.474,0,0,1-.616-2.064,5,5,0,0,1,.4-1.343,5.29,5.29,0,0,0,.106-2.675,10.514,10.514,0,0,0,.929-.929,24.528,24.528,0,0,0,1.746-2.266c.262-.343.646-.848,1.141-1.438.03-.691.066-1.373.1-2.064,1.686-.136,3.367-.278,5.052-.414.268.242.545.479.823.722a4.335,4.335,0,0,1,1.438-.823c.737-.242,1.2-.156,3.4.106a31.426,31.426,0,0,0,3.4.414,2.945,2.945,0,0,1,1.852.308,2.281,2.281,0,0,1,.823,1.544,1.623,1.623,0,0,0-1.131.727,1.805,1.805,0,0,0,0,1.332,9.159,9.159,0,0,0,.823,1.852c.444.969.434,1.131.722,1.343a1.753,1.753,0,0,0,1.544.212c.126-.045.4-.156,1.131-1.035a12.005,12.005,0,0,0,.929-1.237h1.544c.212.479.414.969.616,1.449.757-.141,1.514-.278,2.271-.414.066-.555.136-1.1.2-1.65l1.035-1.035c.03-1.131.066-2.266.1-3.4a4.25,4.25,0,0,0,2.165-3.195,8.882,8.882,0,0,1-.414-2.367,7.341,7.341,0,0,1,.2-2.165,6.581,6.581,0,0,1,.621-1.544,5.844,5.844,0,0,1,2.887-2.367,15.227,15.227,0,0,0,.722-2.266,15.73,15.73,0,0,0,.414-3.811,9.853,9.853,0,0,0,1.544-.727,10.318,10.318,0,0,0,1.852-1.332c-.106-2.408-.2-4.805-.308-7.213a2.286,2.286,0,0,1-.823-.929,2.487,2.487,0,0,1,.106-2.16c.838.02,1.686.045,2.529.066a1.812,1.812,0,0,0,.56-.479,2.223,2.223,0,0,0,.308-1.852c.53-.126,1.065-.257,1.595-.384a10.961,10.961,0,0,0,1.393.414c1.161.278,1.772.212,2.266.757a2.036,2.036,0,0,1,.479,1.171c-.045,1-.091,2.009-.136,3.023a2.631,2.631,0,0,0,1.852.823,2.539,2.539,0,0,0,1.237-.343c.691-.621,1.373-1.237,2.064-1.857a7.984,7.984,0,0,0,2.609,1.514c.989.338,1.7.353,2.2.959a2.392,2.392,0,0,1,.414,1.716,18.286,18.286,0,0,1,2.473-.066,4.155,4.155,0,0,1,1.438.212,3.815,3.815,0,0,1,1.514,1.03,5.426,5.426,0,0,1,1.3,2.675,7.225,7.225,0,0,1,.136,2.266,3.31,3.31,0,0,0,1.928.076c.308-.091.353-.167,1.373-.621a4.26,4.26,0,0,1,1.307-.479,2.8,2.8,0,0,1,1.509.479,5.781,5.781,0,0,1,1.449,1.1c-.02.479-.045.959-.066,1.438a8.253,8.253,0,0,1,1.232,1.171,4.078,4.078,0,0,1,1.1,1.852A2.513,2.513,0,0,1,190.459,91.86Z" transform="translate(-29.706 -8.672)"/><path class="c" d="M194.042,186.83a15.053,15.053,0,0,1-.414,3.644c-.227.944-.373,1.146-.545,2.064a11.268,11.268,0,0,0-.2,2.609c-.49,1.03-.969,2.064-1.449,3.089-.681,1.267-1.433,2.579-2.266,3.912-.5.808-1,1.59-1.514,2.342a3.3,3.3,0,0,0,.141,1.918,3.012,3.012,0,0,0,.449.823c-.358,1.595-.712,3.2-1.07,4.805-1.2,1.065-2.4,2.13-3.609,3.195a2.954,2.954,0,0,0-.308,1.65c.091.646.384.893.52,1.544a3.288,3.288,0,0,1-.212,1.857c-.681.136-1.373.268-2.054.4v4.537c-.358.076-.737.182-1.141.308a10.941,10.941,0,0,0-2.054.929q-3.1.2-6.188.414c-.106,1-.2,1.994-.308,2.983-1.3.035-2.609.076-3.912.106-.242.823-.479,1.65-.722,2.473a6.154,6.154,0,0,1-4.538.308c-.691.646-1.247,1.216-1.65,1.65-.772.833-.969,1.115-1.438,1.237a2.057,2.057,0,0,1-1.958-.621c-.6-.681-.227-1.4-.722-1.852-.308-.278-.939-.444-2.367.106a2.515,2.515,0,0,1-.212,1.65,3.075,3.075,0,0,1-2.266,1.332,5.007,5.007,0,0,1-2.473-.1q-2.271,1.128-4.538,2.266a14,14,0,0,1-5.461-.308,17.057,17.057,0,0,1-1.746-.621c-1.514-.661-1.625-1.065-2.685-1.333-1.216-.323-1.5.111-2.16-.313-.868-.555-.636-1.479-1.449-2.054a2.694,2.694,0,0,0-2.367-.212c-.56.586-1.115,1.161-1.686,1.746q-.2-3.4-.4-6.794c-.525-.863-1.237-1.994-2.13-3.3-.51-.752-1.358-1.989-2.332-3.225a38.891,38.891,0,0,0-4.674-4.951c.045-1.171.091-2.332.136-3.5q-3.4-3.679-6.8-7.349v-2.953c-.384-.56-.792-1.146-1.237-1.762q2.408-5.852,4.805-11.7c.323-1.161.651-2.327.974-3.488q.856,0,1.711-.015c.172.863.343,1.716.51,2.579,1.1.651,2.206,1.3,3.3,1.958.172,2.266.343,4.527.52,6.8a3.447,3.447,0,0,0,2.574-.106,1.891,1.891,0,0,0,.823-.722,2.214,2.214,0,0,0,.212-1.343c-.066-1.555.722-3.306,1.438-3.4.3-.035.338.232,1.131.51a2.41,2.41,0,0,0,1.237.212c.651-.126.661-.631,1.343-.929a2.344,2.344,0,0,1,1.958.106c.707.384.57.878,1.438,1.544a2.161,2.161,0,0,0,1.544.616c.52-.076.666-.464,1.449-1.131a8.8,8.8,0,0,1,1.544-1.03,5.343,5.343,0,0,1,3.7-.106c.808.2,1.56.53,4.018,2.266.984.7,2.256,1.625,3.71,2.781.853.212,1.716.414,2.574.621-.2.929-.4,1.852-.616,2.781a2.251,2.251,0,0,0-.106,1.746c.268.631.792.712,1.035,1.449.2.621-.1.823.1,1.237.368.752,1.741.792,2.685.823a7.136,7.136,0,0,0,2.983-.414,7.95,7.95,0,0,0,3.3-2.993,21.841,21.841,0,0,1,5.355-4.845c.106-.893.212-1.787.313-2.675.308-.853.616-1.716.924-2.574a18.46,18.46,0,0,1-3.7-2.887c-1.64-1.666-2.544-2.574-2.781-4.018a10.641,10.641,0,0,0-.414-2.266,8.147,8.147,0,0,0-.929-1.857,2.677,2.677,0,0,1,.106-2.16,2.255,2.255,0,0,1,1.958-1.343c.792.106.823.989,2.473,2.367a2.891,2.891,0,0,0,1.438.823,2.407,2.407,0,0,0,1.958-.52,2.812,2.812,0,0,0,.722-1.131c.247-.51.651-1.02,3.71-2.675.989-.53,1.837-.969,3.4-1.756a15.065,15.065,0,0,0,2.781-1.544,8.623,8.623,0,0,0,2.165-2.468c1.373-.035,2.746-.076,4.119-.106,1.3-.262,2.6-.52,3.907-.782.227,1.131.49,2.519.767,4.109.6.868,1.191,1.741,1.792,2.609a6.646,6.646,0,0,0,0,3.432,5.979,5.979,0,0,0,.545,1.373,9.049,9.049,0,0,1,1.1,2.342A10.491,10.491,0,0,1,194.042,186.83Z" transform="translate(-29.65 -57.56)"/><path class="d" d="M209.78,324.766c-1.716.247-3.195.444-4.381.606-5.451.742-6.93.924-8.651,1.1-2.175.227-3.952.343-5.083.414-.666.3-1.327.6-1.994.9q-5.769.03-11.538.066c-.247-.323-.5-.646-.757-.969-.792-.02-1.595-.045-2.4-.066l-5.219-3.78c-.076-.545-.141-1.1-.212-1.64-.636-.8-1.282-1.605-1.918-2.408-.969-.091-1.928-.182-2.887-.278q-1.136-1.37-2.266-2.746-3.407-2.96-6.8-5.91c-.141-.681-.278-1.373-.414-2.064q-2.173-2.847-4.325-5.7c.389-.368.782-.737,1.161-1.1-.136-.358-.267-.727-.414-1.1-.591-.111-1.186-.232-1.787-.343-.227-.914-.459-1.827-.681-2.746-.257-1.171-.5-2.342-.757-3.5a16.876,16.876,0,0,1-1.716-3.1,8.955,8.955,0,0,0-.959-1.852,7.578,7.578,0,0,0-1.171-1.3c0-.045-.005-.091-.005-.136V287.1c.57-.586,1.126-1.161,1.686-1.746a2.677,2.677,0,0,1,2.367.212c.808.575.575,1.5,1.449,2.054.661.429.944-.005,2.16.313,1.055.268,1.171.676,2.685,1.333a17.052,17.052,0,0,0,1.746.621,14,14,0,0,0,5.461.308q2.271-1.136,4.538-2.266a4.952,4.952,0,0,0,2.473.1,3.1,3.1,0,0,0,2.266-1.333,2.548,2.548,0,0,0,.212-1.65c1.433-.545,2.064-.384,2.367-.106.495.449.121,1.171.722,1.852a2.056,2.056,0,0,0,1.958.621c.474-.121.666-.4,1.438-1.237.4-.434.959-1,1.65-1.65a6.376,6.376,0,0,0,2.887.212,6.183,6.183,0,0,0,1.65-.52c.242-.823.479-1.65.722-2.473,1.3-.03,2.609-.066,3.912-.106.106-.989.2-1.989.308-2.983q3.1-.2,6.188-.414a10.938,10.938,0,0,1,2.054-.929c.4-.126.782-.232,1.141-.308V274.6c.722-.091,1.438-.182,2.16-.267a3.408,3.408,0,0,1,2.781.722,3.011,3.011,0,0,1,.929,3.195c-.2.464-.429.429-1.035,1.237a8.825,8.825,0,0,0-1.03,1.852,11.091,11.091,0,0,0-.823,3.089c-1.267.035-2.544.076-3.811.106a21.849,21.849,0,0,1-3.71,7.006c0,.005.722,1.958.722,1.963s.722,1.948.722,1.958c-.172.414-.338.823-.51,1.232-.449.141-.893.278-1.343.414q.045,2.271.091,4.538l2.382,2.367c.03,1.03.066,2.064.106,3.089.959-.066,1.918-.136,2.877-.2.691-.651,1.373-1.3,2.064-1.958a3.74,3.74,0,0,1,2.266.414,3.817,3.817,0,0,1,1.65,1.746v1.857a16.93,16.93,0,0,1,2.271,1.852,18.582,18.582,0,0,1,1.332,1.438,11.134,11.134,0,0,0-.722,2.887,10.716,10.716,0,0,0,.308,3.917c.308.621.621,1.237.929,1.852C209.427,322.192,209.6,323.484,209.78,324.766Z" transform="translate(-46.776 -109.345)"/><path class="e" d="M298.142,304.961H287.78a34.053,34.053,0,0,1-3.3,1.65,33.056,33.056,0,0,1-4.8,1.65l-20.124,1.3c-.555.076-1.085.151-1.595.217-.182-1.282-.353-2.574-.53-3.861-.308-.616-.621-1.232-.929-1.852a10.724,10.724,0,0,1,.414-6.8,18.678,18.678,0,0,0-1.332-1.439,17.265,17.265,0,0,0-2.271-1.852v-1.857a3.788,3.788,0,0,0-1.65-1.746,3.736,3.736,0,0,0-2.266-.414c-.691.651-1.373,1.3-2.064,1.958-.959.066-1.918.136-2.877.2-.035-1.03-.076-2.064-.106-3.089l-2.382-2.367q-.045-2.264-.091-4.538c.449-.136.893-.267,1.343-.414.172-.4.338-.818.51-1.232,0-.005-.722-1.958-.722-1.958s-.722-1.958-.722-1.963a21.843,21.843,0,0,0,2.473-3.917,22.083,22.083,0,0,0,1.237-3.089c1.267-.03,2.544-.066,3.811-.106a11.09,11.09,0,0,1,.823-3.089,8.6,8.6,0,0,1,1.03-1.852c.606-.808.833-.772,1.035-1.237a3.02,3.02,0,0,0-.929-3.195,3.411,3.411,0,0,0-2.781-.722c-.722.091-1.438.182-2.16.268v-2.13c.681-.136,1.373-.267,2.054-.4a3.334,3.334,0,0,0,.212-1.857c-.136-.651-.429-.9-.52-1.544a2.954,2.954,0,0,1,.308-1.65q1.809-1.6,3.609-3.195c.358-1.605.712-3.21,1.07-4.805a1.689,1.689,0,0,0,.712.545,1.924,1.924,0,0,0,.419.111c-.3,1.408-.56,2.892-.757,4.452-.141,1.065-.242,2.1-.313,3.1-.242.853-.479,1.716-.722,2.574a5.925,5.925,0,0,1,2.993,0,3.573,3.573,0,0,1,1.65.823,3.247,3.247,0,0,1,.924,1.756c-.136,1.61-.267,3.225-.414,4.845.863,1.64,1.716,3.291,2.579,4.941,1.393.141,2.806.278,4.22.414,1.141.106,2.271.212,3.4.308.414.48.823.969,1.232,1.449,1.686.066,3.367.136,5.052.2.5-.121,1.247-.278,2.16-.414a14.77,14.77,0,0,1,4.124-.106,10.4,10.4,0,0,1,1.3.242,1.63,1.63,0,0,1,1.07.691,2.44,2.44,0,0,1,0,1.958,3.311,3.311,0,0,1-1.131,1.544,3.5,3.5,0,0,1-.414,2.367,3.628,3.628,0,0,1-2.675,1.65c-.212,1.756-.414,3.5-.621,5.254a8.138,8.138,0,0,0,2.165,1.343,8.308,8.308,0,0,0,1.852.51,3.319,3.319,0,0,1,1.343-.924,4.007,4.007,0,0,1,2.266,0,31.061,31.061,0,0,1,3.4.818c1.852.56,2.842.863,3.139,1,.02.015.035.02.051.03a6.389,6.389,0,0,1,2.685,3.609q.144,5.928.308,11.846l2.473,1.852C298.056,303.547,298.1,304.259,298.142,304.961Z" transform="translate(-94.946 -94.364)"/><path class="f" d="M300.47,243.347a1.861,1.861,0,0,1-.313,1.555,1.464,1.464,0,0,1-1.03.4c-.242.727-.479,1.449-.722,2.165-.691.52-1.373,1.03-2.064,1.544-.389,1.807-.707,3.261-.929,4.432a5.36,5.36,0,0,1-.51,1.544,5.052,5.052,0,0,1-1.141,1.438c-.283,1.146-.575,2.3-.863,3.432a11.664,11.664,0,0,0-1.3-.242,14.561,14.561,0,0,0-4.124.106c-.914.136-1.656.293-2.16.414-1.686-.066-3.366-.136-5.052-.2-.4-.48-.818-.969-1.232-1.449-1.131-.1-2.266-.2-3.4-.308-1.418-.136-2.827-.267-4.22-.414-.863-1.65-1.716-3.3-2.579-4.941.141-1.62.278-3.23.414-4.845a3.279,3.279,0,0,0-.924-1.757,3.5,3.5,0,0,0-1.65-.823,5.924,5.924,0,0,0-2.993,0c.242-.853.479-1.716.722-2.574.076-1,.172-2.034.313-3.1.2-1.56.459-3.044.757-4.452a1.616,1.616,0,0,0,.893-.111,1.823,1.823,0,0,0,.959-1.373,5.9,5.9,0,0,1,1.65-1.716,3.514,3.514,0,0,1,1.716-.757,3.067,3.067,0,0,1,2.054.621,3.687,3.687,0,0,0,2.887.136,3.323,3.323,0,0,0,1.1-.757q1.34-2.983,2.675-5.976,5.792-.159,11.583-.323a5.927,5.927,0,0,0,2.15.707,12.77,12.77,0,0,1,3.195.414,4.3,4.3,0,0,1,1.958,1.438q.363,3.293.722,6.6a1.579,1.579,0,0,1,1.449.818,1.2,1.2,0,0,1-.106,1.343c-.389.308-1-.136-1.237.106-.167.167-.111.636.616,1.852a4.165,4.165,0,0,0-.1,3.089A6.288,6.288,0,0,1,300.47,243.347Z" transform="translate(-105.748 -84.949)"/><path class="g" d="M351.3,246.037c-1.1.066-2.2.136-3.291.2a2.814,2.814,0,0,1-.283-.2,11.981,11.981,0,0,1-2.705-2.483c-.606-.772-.8-1.221-1.958-2.781a9.6,9.6,0,0,0-1.746-2.064c-.474-.3-1.726-.929-4.124-.2q.257,1.34.52,2.675c.1.52.2,1.035.308,1.544a1.782,1.782,0,0,0-1.237.106,2.15,2.15,0,0,0-.929,1.237,3.951,3.951,0,0,0-.308,1.65h2.367c-.066.823-.136,1.65-.2,2.468-2.165-.136-4.326-.267-6.5-.414a1.63,1.63,0,0,0-.616,1.141,1.555,1.555,0,0,0,.823,1.439c.2.722.414,1.438.616,2.165-.449.167-.893.338-1.343.51q-.045,3.1-.1,6.188l.722,1.438a2.825,2.825,0,0,1-.823,1.03,2.89,2.89,0,0,1-2.064.52c-.05,2.806-.106,5.618-.156,8.419-.3-.141-1.292-.444-3.139-1a31.071,31.071,0,0,0-3.4-.818,4.007,4.007,0,0,0-2.266,0,3.273,3.273,0,0,0-1.343.924,8.311,8.311,0,0,1-1.852-.51,8.057,8.057,0,0,1-2.165-1.343c.212-1.756.414-3.5.621-5.254a3.62,3.62,0,0,0,2.675-1.65,3.5,3.5,0,0,0,.414-2.367,3.311,3.311,0,0,0,1.131-1.544,2.438,2.438,0,0,0,0-1.958,1.674,1.674,0,0,0-1.07-.691c.283-1.141.575-2.286.863-3.432a5.052,5.052,0,0,0,1.141-1.439A5.361,5.361,0,0,0,320.4,248c.227-1.171.54-2.625.929-4.432.691-.515,1.373-1.03,2.064-1.544.242-.722.479-1.439.722-2.165a1.471,1.471,0,0,0,1.03-.4,1.861,1.861,0,0,0,.313-1.555,6.375,6.375,0,0,0-.823-1.958,4.165,4.165,0,0,1,.1-3.089c-.727-1.216-.782-1.686-.616-1.852.232-.242.848.2,1.237-.106a1.213,1.213,0,0,0,.106-1.343,1.573,1.573,0,0,0-1.449-.818q-.363-3.308-.722-6.6a4.3,4.3,0,0,0-1.958-1.439,12.741,12.741,0,0,0-3.195-.414,5.831,5.831,0,0,1-2.15-.707c.141-.005.293-.005.434-.015a12.741,12.741,0,0,0,5.365-4.4h3.7a4.079,4.079,0,0,1,1.237-.823c1.333-.545,3.351-.474,4.326.823a2.932,2.932,0,0,1,.545,1.857c.121,1.963.232,3.937.343,5.9a5.421,5.421,0,0,1,1.237.621,5.141,5.141,0,0,1,.893.757c3.255.091,6.5.182,9.756.268l-.136,2.544q1.711,1.272,3.432,2.544c.015-.4.03-.792.045-1.191.49,1.156.974,2.312,1.464,3.457-.136.555-.268,1.1-.414,1.65q.257,3.195.52,6.39a10.97,10.97,0,0,1,1.958,2.579,5.262,5.262,0,0,1,.722,2.064A4.376,4.376,0,0,1,351.3,246.037Z" transform="translate(-130.73 -79.498)"/><path class="h" d="M382.2,306.635c-.676,1.191-1.358,2.392-2.034,3.609-6.733-.2-8.338.389-10.095-.414a4.481,4.481,0,0,0-2.064-.479,5.1,5.1,0,0,0-2.064.545s-.03.015-3.982,1.1a23.259,23.259,0,0,1-7.763.479c-.924.323-1.867.666-2.821,1.03-1.131.429-2.226.868-3.291,1.307H347.8c-.045-.707-.081-1.418-.126-2.13L345.2,309.83q-.159-5.928-.308-11.846a6.387,6.387,0,0,0-2.685-3.609.19.19,0,0,1-.051-.03c.051-2.806.106-5.618.156-8.419a2.841,2.841,0,0,0,2.064-.52,2.771,2.771,0,0,0,.823-1.03l-.722-1.438q.045-3.1.1-6.188c.449-.172.893-.343,1.343-.51-.2-.727-.414-1.449-.616-2.165a1.546,1.546,0,0,1-.823-1.438,1.612,1.612,0,0,1,.616-1.141c2.165.141,4.326.278,6.5.414.066-.818.136-1.64.2-2.468h-2.367a3.97,3.97,0,0,1,.308-1.65,2.177,2.177,0,0,1,.929-1.237,1.783,1.783,0,0,1,1.237-.106c-.106-.51-.212-1.03-.308-1.544q-.257-1.34-.52-2.675c2.4-.727,3.649-.1,4.124.2a9.594,9.594,0,0,1,1.746,2.064c1.156,1.56,1.348,2.009,1.958,2.781a11.982,11.982,0,0,0,2.705,2.483c-.217.681-.429,1.373-.646,2.054.172.545.343,1.1.52,1.65a4.645,4.645,0,0,0,1.65.924,5.041,5.041,0,0,0,3.609-.308c.989.616,1.989,1.237,2.983,1.852q.2,4.126.414,8.247c.474.707,1.2,1.762,2.165,2.983,2.12,2.7,3.538,3.861,5.047,5.562a28.432,28.432,0,0,1,4.326,6.592c.035,1.928.066,3.846.106,5.774C381.922,305.606,382.059,306.115,382.2,306.635Z" transform="translate(-144.617 -103.211)"/><path class="i" d="M454.463,156.628c-.091,1-.187,2.019-.278,3.023-.2.939-.414,1.873-.616,2.821a4.811,4.811,0,0,1-1.514.479,8.4,8.4,0,0,0-1.3.136,2.617,2.617,0,0,0-1.236.823,11.64,11.64,0,0,1-3.846,6.112c-.793.621-1.671,1.08-3.917,2.675-1.156.823-2.079,1.529-2.675,1.994a14.007,14.007,0,0,1-1.035,1.928c-1.827,2.857-4.043,3.942-6.042,5.562a20.365,20.365,0,0,0-4.876,5.835,2.559,2.559,0,0,0,0,1.65c.126.338.368.727,1.58,1.58a19.555,19.555,0,0,0,2.266,1.373c-.091,1.827-.187,3.659-.278,5.5-.434,1.449-.868,2.67-1.237,3.639a36.466,36.466,0,0,1-1.575,3.71c-.3.6-.56,1.085-.757,1.439-.156,2.408-.323,4.8-.479,7.213-.323.434-.646.868-.959,1.3.045,1.126.091,2.241.136,3.367-1.126,1.1-2.241,2.2-3.366,3.3-.045.727-.091,1.464-.136,2.2-.257.444-.636,1.1-1.171,1.852a9.525,9.525,0,0,1-3.155,3.3,6.5,6.5,0,0,1-2.064.681c.136,2.2.2,4.543.136,7.011-.02,1.1-.076,2.18-.136,3.225a14,14,0,0,1,2.2,3.023,13.783,13.783,0,0,1,.823,1.857c.02.545.045,1.1.066,1.65,1.191,1.115,2.382,2.241,3.568,3.362-1,.02-2.009.05-3.023.076q-.439.651-.893,1.3-3.059.1-6.112.2c-.57-.5-1.146-1-1.716-1.509-1.605-.076-3.21-.141-4.805-.212a13.02,13.02,0,0,0-2.064-.959,15.552,15.552,0,0,0-5.36-.823c.676-1.216,1.358-2.413,2.034-3.609-.141-.52-.278-1.03-.414-1.544-.035-1.928-.066-3.846-.106-5.774A28.763,28.763,0,0,0,395.8,230.8c-1.509-1.7-2.922-2.862-5.047-5.562-.969-1.221-1.7-2.281-2.165-2.983q-.2-4.126-.414-8.247c-1-.616-1.994-1.237-2.983-1.852a5.032,5.032,0,0,1-3.609.308,4.692,4.692,0,0,1-1.65-.924c-.172-.555-.343-1.1-.52-1.65.217-.681.429-1.373.646-2.054.091.066.187.136.283.2,1.1-.066,2.2-.136,3.291-.2a4.285,4.285,0,0,0,.106-1.438,5.173,5.173,0,0,0-.722-2.064,10.968,10.968,0,0,0-1.958-2.579q-.257-3.195-.52-6.39c.141-.545.278-1.1.414-1.65-.49-1.146-.974-2.3-1.464-3.457v-.005c.005-.242.015-.479.02-.722.545-.479,1.1-.969,1.65-1.449.091-.707.182-1.418.267-2.13a12.48,12.48,0,0,0,1.514-1.918,6.787,6.787,0,0,0,1.237-2.544c.217-1.191-.212-1.625.2-2.887a1.893,1.893,0,0,1,.757-1.171,2.047,2.047,0,0,1,1.716.076,4.056,4.056,0,0,1,1.514,1.237,12.085,12.085,0,0,1,1.3,1.716c1.575-1.312,3.155-2.614,4.739-3.922a7.471,7.471,0,0,1,3.3.343,5.307,5.307,0,0,0,.555-1.575,15.356,15.356,0,0,1,.2-2.206,2.937,2.937,0,0,1,1.171-1.438q2.362-2.809,4.739-5.633a15.213,15.213,0,0,0-.212-2.13,4.775,4.775,0,0,1-.136-2.064,2.635,2.635,0,0,1,.479-1.03,4.139,4.139,0,0,1,2.408-1.171,2.625,2.625,0,0,0-.141-2.266c-.278-.368-.53-.328-.959-.757s-.53-.818-.959-2.13a22.779,22.779,0,0,0-.823-2.342,6.03,6.03,0,0,0-1.509-1.787c-.585-.459-.752-.4-1.449-.959-.661-.53-1.2-.974-1.171-1.509.03-.358.3-.616.757-1.035.4-.358.621-.429,1.237-.893.338-.247.591-.474.757-.616a6.765,6.765,0,0,1,1.787-1.378,6.966,6.966,0,0,1,3.644-.752,22.151,22.151,0,0,0,5.285-.621,4.028,4.028,0,0,0,1.438-.757,2.992,2.992,0,0,0,.893-1.1c.338-.737.106-1.131.278-2.064a4.787,4.787,0,0,1,.692-1.716c2.16-.1,4.452-.111,6.869,0,.767.035,1.524.081,2.266.136q3.71,2.756,7.414,5.5a1.571,1.571,0,0,1-.267,1.237,1.46,1.46,0,0,1-.691.479,3.213,3.213,0,0,0,.823,2.266,3.576,3.576,0,0,0,1.852.9,3.7,3.7,0,0,0,1.994.066,3.224,3.224,0,0,0,1.373-.823,5.019,5.019,0,0,1,1.994-1.171,4.565,4.565,0,0,1,1.161-.2c.621-.167,1.237-.323,1.857-.49,1.191.03,2.377.05,3.568.076q3.778,3.5,7.561,7.006a2.986,2.986,0,0,1,.777,1.131A3.928,3.928,0,0,1,454.463,156.628Z" transform="translate(-163.066 -41.294)"/><g transform="translate(80.653 83.869)"><path class="j" d="M115.188,116.234a2.369,2.369,0,0,1-2.347,2.66,2.316,2.316,0,0,1-2.271-2.569,2.4,2.4,0,0,1,2.337-2.655A2.3,2.3,0,0,1,115.188,116.234Zm-3.927.076c0,1.085.585,2.054,1.62,2.054s1.62-.954,1.62-2.1c0-1.009-.525-2.059-1.61-2.059S111.261,115.2,111.261,116.31Z" transform="translate(-110.57 -113.67)"/><path class="j" d="M121.41,118.9v-5.052h.722l1.61,2.554a14,14,0,0,1,.9,1.64l.02-.01c-.061-.676-.076-1.287-.076-2.074V113.84h.616v5.052h-.661l-1.605-2.564a14.57,14.57,0,0,1-.939-1.686l-.02.005c.035.636.045,1.247.045,2.085v2.16h-.611Z" transform="translate(-115.939 -113.754)"/><path class="j" d="M131.18,113.891a8.591,8.591,0,0,1,1.388-.111,2.919,2.919,0,0,1,2.044.631,2.3,2.3,0,0,1,.722,1.812,2.705,2.705,0,0,1-.727,1.963,3.138,3.138,0,0,1-2.241.727,9.827,9.827,0,0,1-1.186-.061v-4.961Zm.651,4.467a4.928,4.928,0,0,0,.661.03,1.937,1.937,0,0,0,2.15-2.145,1.8,1.8,0,0,0-2.044-1.948,3.95,3.95,0,0,0-.767.066Z" transform="translate(-120.778 -113.724)"/><path class="j" d="M145.1,116.234a2.369,2.369,0,0,1-2.347,2.66,2.316,2.316,0,0,1-2.271-2.569,2.4,2.4,0,0,1,2.337-2.655A2.3,2.3,0,0,1,145.1,116.234Zm-3.927.076c0,1.085.585,2.054,1.62,2.054s1.62-.954,1.62-2.1c0-1.009-.525-2.059-1.61-2.059S141.171,115.2,141.171,116.31Z" transform="translate(-125.384 -113.67)"/></g><g transform="translate(119.093 110.716)"><path class="j" d="M189.344,169.725h-1.958v1.822h2.191v.545H186.73V167.04h2.736v.545h-2.074v1.595h1.958v.545Z" transform="translate(-186.73 -166.949)"/><path class="j" d="M194.05,167.081a8.587,8.587,0,0,1,1.388-.111,2.919,2.919,0,0,1,2.044.631,2.3,2.3,0,0,1,.722,1.812,2.705,2.705,0,0,1-.727,1.963,3.138,3.138,0,0,1-2.241.727,9.828,9.828,0,0,1-1.186-.061Zm.651,4.467a4.929,4.929,0,0,0,.661.03,1.937,1.937,0,0,0,2.15-2.145,1.8,1.8,0,0,0-2.044-1.948,3.949,3.949,0,0,0-.767.066Z" transform="translate(-190.355 -166.914)"/><path class="j" d="M207.968,169.424a2.369,2.369,0,0,1-2.347,2.66,2.316,2.316,0,0,1-2.271-2.569,2.4,2.4,0,0,1,2.337-2.655A2.31,2.31,0,0,1,207.968,169.424Zm-3.927.076c0,1.085.585,2.054,1.62,2.054s1.62-.954,1.62-2.1c0-1.009-.525-2.059-1.61-2.059S204.041,168.4,204.041,169.5Z" transform="translate(-194.961 -166.86)"/></g><g transform="translate(112.93 159.851)"><path class="j" d="M174.52,264.321a8.591,8.591,0,0,1,1.388-.111,2.919,2.919,0,0,1,2.044.631,2.3,2.3,0,0,1,.722,1.812,2.7,2.7,0,0,1-.727,1.963,3.138,3.138,0,0,1-2.241.727,9.832,9.832,0,0,1-1.186-.061Zm.656,4.467a4.932,4.932,0,0,0,.661.03,1.937,1.937,0,0,0,2.15-2.145,1.8,1.8,0,0,0-2.044-1.948,3.948,3.948,0,0,0-.767.066Z" transform="translate(-174.52 -264.21)"/><path class="j" d="M187.025,266.965h-1.958v1.822h2.191v.545H184.41V264.28h2.736v.545h-2.074v1.595h1.958v.545Z" transform="translate(-179.418 -264.245)"/><path class="j" d="M191.71,264.28h.661v4.5h2.16v.545h-2.816V264.28Z" transform="translate(-183.034 -264.245)"/><path class="j" d="M197.824,264.835H196.29v-.555h3.74v.555h-1.544v4.5h-.661Z" transform="translate(-185.302 -264.245)"/><path class="j" d="M204.141,267.742l-.525,1.59h-.676l1.726-5.052h.777l1.721,5.052h-.7l-.54-1.59Zm1.666-.51-.5-1.454c-.111-.328-.187-.631-.262-.924h-.015c-.076.293-.151.606-.257.914l-.495,1.464Z" transform="translate(-188.596 -264.245)"/></g><g transform="translate(115.181 194.097)"><path class="j" d="M178.98,332.261a5.863,5.863,0,0,1,1.191-.111,2.037,2.037,0,0,1,1.378.368,1.069,1.069,0,0,1,.429.893,1.194,1.194,0,0,1-.853,1.11v.02a1.284,1.284,0,0,1,1.04,1.257,1.319,1.319,0,0,1-.434,1.009,2.492,2.492,0,0,1-1.736.469,7.516,7.516,0,0,1-1.009-.061v-4.956Zm.651,2.069h.591c.681,0,1.085-.368,1.085-.853,0-.585-.444-.823-1.1-.823a2.882,2.882,0,0,0-.575.045Zm0,2.413a3.842,3.842,0,0,0,.545.03c.676,0,1.3-.247,1.3-.979,0-.681-.591-.974-1.3-.974h-.54Z" transform="translate(-178.98 -332.105)"/><path class="j" d="M187.471,335.692l-.525,1.59h-.676L188,332.23h.777l1.721,5.052h-.7l-.54-1.59Zm1.666-.51-.5-1.454c-.111-.328-.187-.631-.262-.924h-.015c-.076.293-.151.606-.257.914l-.495,1.464Z" transform="translate(-182.591 -332.144)"/><path class="j" d="M195.605,337.282v-2.145L194,332.23h.752l.712,1.393c.187.384.343.691.5,1.04h.015c.136-.328.313-.661.51-1.04l.727-1.393h.737l-1.686,2.9v2.15Z" transform="translate(-186.419 -332.144)"/><path class="j" d="M205.484,334.905h-1.958v1.822h2.19v.545H202.87V332.22h2.736v.545h-2.074v1.595h1.958v.545Z" transform="translate(-190.812 -332.139)"/><path class="j" d="M210.18,332.23h.661v4.5H213v.545h-2.816V332.23Z" transform="translate(-194.433 -332.144)"/><path class="j" d="M216.872,336.4a2.216,2.216,0,0,0,1.161.328c.666,0,1.055-.353,1.055-.863,0-.464-.273-.742-.954-.994-.823-.3-1.333-.737-1.333-1.438a1.455,1.455,0,0,1,1.635-1.373,2.279,2.279,0,0,1,1.11.247l-.182.53a1.881,1.881,0,0,0-.954-.242c-.691,0-.949.414-.949.757,0,.474.308.707,1,.974.853.328,1.282.742,1.282,1.484,0,.777-.57,1.464-1.761,1.464a2.636,2.636,0,0,1-1.287-.328Z" transform="translate(-197.662 -332.06)"/><path class="j" d="M224.971,335.692l-.525,1.59h-.676l1.726-5.052h.777l1.721,5.052h-.7l-.54-1.59Zm1.661-.51-.5-1.454c-.111-.328-.187-.631-.262-.924h-.015c-.076.293-.151.606-.257.914l-.495,1.464Z" transform="translate(-201.163 -332.144)"/></g><g transform="translate(165.074 194.097)"><path class="j" d="M277.83,332.256a7.479,7.479,0,0,1,1.252-.106,2.1,2.1,0,0,1,1.464.414,1.294,1.294,0,0,1,.4.964A1.326,1.326,0,0,1,280,334.81v.025a1.271,1.271,0,0,1,.737,1.02,8.687,8.687,0,0,0,.389,1.388h-.676a6.22,6.22,0,0,1-.328-1.206c-.151-.7-.429-.959-1.02-.984h-.616v2.19h-.651v-4.987Zm.651,2.3h.666c.7,0,1.141-.384,1.141-.959,0-.651-.469-.939-1.161-.939a2.929,2.929,0,0,0-.646.051Z" transform="translate(-277.83 -332.105)"/><path class="j" d="M286.461,332.23v5.052H285.8V332.23Z" transform="translate(-281.777 -332.144)"/><path class="j" d="M289.945,337.282l-1.656-5.052H289l.787,2.488c.212.681.4,1.3.54,1.888h.015c.141-.586.343-1.221.575-1.883l.853-2.493h.7l-1.807,5.052Z" transform="translate(-283.01 -332.144)"/><path class="j" d="M300.264,334.905h-1.958v1.822h2.19v.545H297.65V332.22h2.736v.545h-2.074v1.595h1.958v.545Z" transform="translate(-287.646 -332.139)"/><path class="j" d="M304.97,332.256a7.479,7.479,0,0,1,1.252-.106,2.1,2.1,0,0,1,1.464.414,1.294,1.294,0,0,1,.4.964,1.326,1.326,0,0,1-.944,1.282v.025a1.271,1.271,0,0,1,.737,1.02,8.686,8.686,0,0,0,.389,1.388h-.676a6.224,6.224,0,0,1-.328-1.206c-.151-.7-.429-.959-1.02-.984h-.616v2.19h-.651v-4.987Zm.651,2.3h.666c.7,0,1.141-.384,1.141-.959,0-.651-.469-.939-1.161-.939a2.929,2.929,0,0,0-.646.051Z" transform="translate(-291.272 -332.105)"/><path class="j" d="M312.627,336.4a2.216,2.216,0,0,0,1.161.328c.666,0,1.055-.353,1.055-.863,0-.464-.273-.742-.954-.994-.823-.3-1.332-.737-1.332-1.438a1.455,1.455,0,0,1,1.635-1.373,2.279,2.279,0,0,1,1.11.247l-.182.53a1.881,1.881,0,0,0-.954-.242c-.692,0-.954.414-.954.757,0,.474.308.707,1,.974.853.328,1.282.742,1.282,1.484,0,.777-.57,1.464-1.762,1.464a2.636,2.636,0,0,1-1.287-.328Z" transform="translate(-294.976 -332.06)"/></g><g transform="translate(169.879 157.681)"><path class="j" d="M288.011,260.09v5.052h-.661V260.09Z" transform="translate(-287.35 -259.999)"/><path class="j" d="M295.046,262.917c-.035-.707-.081-1.56-.081-2.18h-.015c-.182.586-.384,1.221-.636,1.918l-.893,2.448h-.495l-.823-2.408c-.242-.722-.434-1.363-.575-1.963h-.015c-.015.631-.051,1.469-.1,2.236l-.136,2.165h-.621l.353-5.052h.833l.863,2.443c.212.621.374,1.176.51,1.7h.015c.136-.51.313-1.065.54-1.7l.9-2.443h.833l.313,5.052h-.646Z" transform="translate(-288.989 -259.994)"/><path class="j" d="M306.878,262.474a2.369,2.369,0,0,1-2.347,2.66,2.316,2.316,0,0,1-2.271-2.569,2.4,2.4,0,0,1,2.337-2.655A2.3,2.3,0,0,1,306.878,262.474Zm-3.927.076c0,1.085.586,2.054,1.62,2.054s1.62-.954,1.62-2.1c0-1.009-.525-2.059-1.61-2.059S302.951,261.449,302.951,262.55Z" transform="translate(-294.735 -259.91)"/></g><g transform="translate(197.644 152.548)"><path class="j" d="M343.561,253.272l-.525,1.59h-.676l1.726-5.052h.777l1.721,5.052h-.7l-.54-1.59Zm1.666-.51-.5-1.454c-.111-.328-.187-.631-.262-.924h-.015c-.076.293-.151.606-.257.914l-.495,1.464Z" transform="translate(-342.36 -249.775)"/><path class="j" d="M352.21,249.851a5.859,5.859,0,0,1,1.191-.111,2.037,2.037,0,0,1,1.378.368,1.069,1.069,0,0,1,.429.893,1.194,1.194,0,0,1-.853,1.11v.02a1.284,1.284,0,0,1,1.04,1.257,1.319,1.319,0,0,1-.434,1.009,2.492,2.492,0,0,1-1.736.469,7.5,7.5,0,0,1-1.009-.061v-4.956Zm.651,2.069h.591c.681,0,1.085-.368,1.085-.853,0-.586-.444-.823-1.1-.823a2.968,2.968,0,0,0-.575.045Zm0,2.413a3.837,3.837,0,0,0,.545.03c.676,0,1.3-.247,1.3-.979,0-.681-.591-.974-1.3-.974h-.54Z" transform="translate(-347.238 -249.74)"/><path class="j" d="M360.911,249.81v5.052h-.661V249.81Z" transform="translate(-351.22 -249.775)"/><path class="j" d="M364.251,253.272l-.525,1.59h-.676l1.726-5.052h.777l1.721,5.052h-.7l-.54-1.59Zm1.666-.51-.5-1.454c-.111-.328-.187-.631-.262-.924h-.015c-.076.293-.151.606-.257.914l-.495,1.464Z" transform="translate(-352.607 -249.775)"/></g><g transform="translate(205.977 186.082)"><path class="j" d="M360.071,319.642l-.525,1.59h-.676l1.726-5.052h.777l1.721,5.052h-.7l-.54-1.59Zm1.661-.51-.5-1.454c-.111-.328-.187-.631-.262-.924h-.015c-.076.293-.151.606-.257.914l-.495,1.464Z" transform="translate(-358.87 -316.18)"/><path class="j" d="M368.72,316.18h.651v2.438h.02c.136-.2.273-.373.4-.54l1.544-1.9h.808l-1.827,2.145,1.974,2.907h-.772l-1.655-2.478-.49.555v1.928h-.651V316.18Z" transform="translate(-363.748 -316.18)"/><path class="j" d="M377.372,321.232l-1.282-5.052h.691l.6,2.554c.151.631.283,1.257.374,1.746h.015c.081-.5.242-1.1.414-1.751l.676-2.549h.681l.616,2.564c.141.6.278,1.2.353,1.731h.015c.106-.555.247-1.115.4-1.746l.666-2.549h.666l-1.433,5.052h-.681l-.636-2.63a15.041,15.041,0,0,1-.328-1.65h-.015a14.177,14.177,0,0,1-.389,1.65l-.722,2.63Z" transform="translate(-367.399 -316.18)"/><path class="j" d="M389.151,319.642l-.525,1.59h-.676l1.726-5.052h.777l1.721,5.052h-.7l-.54-1.59Zm1.666-.51-.5-1.454c-.111-.328-.187-.631-.262-.924h-.015c-.076.293-.151.606-.257.914l-.495,1.464Z" transform="translate(-373.272 -316.18)"/><path class="j" d="M360.271,334.01v5.052h-.661V334.01Z" transform="translate(-359.236 -325.011)"/><path class="j" d="M363.18,334.051a5.863,5.863,0,0,1,1.191-.111,2.037,2.037,0,0,1,1.378.368,1.069,1.069,0,0,1,.429.893,1.194,1.194,0,0,1-.853,1.11v.02a1.283,1.283,0,0,1,1.04,1.257,1.319,1.319,0,0,1-.434,1.009,2.492,2.492,0,0,1-1.736.469,7.5,7.5,0,0,1-1.009-.061v-4.956Zm.651,2.064h.591c.681,0,1.085-.368,1.085-.853,0-.585-.444-.823-1.1-.823a2.966,2.966,0,0,0-.575.045Zm0,2.418a3.837,3.837,0,0,0,.545.03c.676,0,1.3-.247,1.3-.979,0-.681-.591-.974-1.3-.974h-.54Z" transform="translate(-361.005 -324.976)"/><path class="j" d="M375.248,336.394a2.369,2.369,0,0,1-2.347,2.66,2.316,2.316,0,0,1-2.271-2.569,2.4,2.4,0,0,1,2.337-2.655A2.3,2.3,0,0,1,375.248,336.394Zm-3.927.076c0,1.085.585,2.054,1.62,2.054s1.62-.954,1.62-2.1c0-1.009-.525-2.059-1.61-2.059S371.321,335.364,371.321,336.47Z" transform="translate(-364.694 -324.922)"/><path class="j" d="M385.6,336.837c-.035-.707-.081-1.56-.081-2.18H385.5c-.182.586-.384,1.221-.636,1.918l-.893,2.448h-.495l-.823-2.408c-.242-.722-.434-1.363-.575-1.963h-.015c-.015.631-.051,1.469-.1,2.236l-.136,2.165h-.621l.353-5.052h.833l.863,2.443c.212.621.374,1.176.51,1.7h.015c.136-.51.313-1.065.54-1.7l.9-2.443h.833l.313,5.052h-.646Z" transform="translate(-369.934 -325.006)"/></g><g transform="translate(223.218 156.182)"><path class="j" d="M396.851,261.937a3.186,3.186,0,0,1-1.332.242,2.357,2.357,0,0,1-2.488-2.564,2.51,2.51,0,0,1,2.64-2.655,2.744,2.744,0,0,1,1.2.227l-.167.53a2.294,2.294,0,0,0-1.01-.212,1.879,1.879,0,0,0-1.973,2.085,1.828,1.828,0,0,0,1.933,2.029,2.553,2.553,0,0,0,1.07-.212Z" transform="translate(-393.03 -256.95)"/><path class="j" d="M402.24,257.146a7.474,7.474,0,0,1,1.252-.106,2.1,2.1,0,0,1,1.464.414,1.294,1.294,0,0,1,.4.964,1.326,1.326,0,0,1-.944,1.282v.025a1.271,1.271,0,0,1,.737,1.02,8.69,8.69,0,0,0,.389,1.388h-.676a6.214,6.214,0,0,1-.328-1.206c-.151-.7-.429-.959-1.02-.984H402.9v2.19h-.651v-4.987Zm.651,2.3h.666c.7,0,1.141-.384,1.141-.959,0-.651-.469-.939-1.161-.939a2.933,2.933,0,0,0-.646.05v1.847Z" transform="translate(-397.591 -256.989)"/><path class="j" d="M414.3,259.5a2.369,2.369,0,0,1-2.347,2.66,2.316,2.316,0,0,1-2.271-2.569,2.4,2.4,0,0,1,2.337-2.655A2.307,2.307,0,0,1,414.3,259.5Zm-3.927.076c0,1.085.585,2.054,1.62,2.054s1.62-.954,1.62-2.1c0-1.009-.525-2.059-1.61-2.059S410.371,258.479,410.371,259.58Z" transform="translate(-401.276 -256.94)"/><path class="j" d="M420.182,261.291a2.216,2.216,0,0,0,1.161.328c.666,0,1.055-.353,1.055-.863,0-.464-.273-.742-.954-.994-.823-.3-1.333-.737-1.333-1.439a1.455,1.455,0,0,1,1.635-1.373,2.279,2.279,0,0,1,1.11.247l-.182.53a1.88,1.88,0,0,0-.954-.242c-.691,0-.949.414-.949.757,0,.474.308.707,1,.974.853.328,1.282.742,1.282,1.484,0,.777-.57,1.464-1.762,1.464a2.635,2.635,0,0,1-1.287-.328Z" transform="translate(-406.392 -256.945)"/><path class="j" d="M427.5,261.291a2.216,2.216,0,0,0,1.161.328c.666,0,1.055-.353,1.055-.863,0-.464-.273-.742-.954-.994-.823-.3-1.332-.737-1.332-1.439a1.455,1.455,0,0,1,1.635-1.373,2.279,2.279,0,0,1,1.11.247l-.182.53a1.88,1.88,0,0,0-.954-.242c-.691,0-.954.414-.954.757,0,.474.308.707,1,.974.853.328,1.282.742,1.282,1.484,0,.777-.57,1.464-1.761,1.464a2.636,2.636,0,0,1-1.287-.328Z" transform="translate(-410.013 -256.945)"/><path class="j" d="M438.31,257.146a7.476,7.476,0,0,1,1.252-.106,2.1,2.1,0,0,1,1.464.414,1.294,1.294,0,0,1,.4.964,1.326,1.326,0,0,1-.944,1.282v.025a1.271,1.271,0,0,1,.737,1.02,8.7,8.7,0,0,0,.389,1.388h-.676a6.211,6.211,0,0,1-.328-1.206c-.151-.7-.429-.959-1.02-.984h-.616v2.19h-.651v-4.987Zm.651,2.3h.666c.7,0,1.141-.384,1.141-.959,0-.651-.469-.939-1.161-.939a2.933,2.933,0,0,0-.646.05Z" transform="translate(-415.456 -256.989)"/><path class="j" d="M446.941,257.12v5.052h-.661V257.12Z" transform="translate(-419.403 -257.029)"/><path class="j" d="M450.426,262.172l-1.656-5.052h.712l.787,2.488c.212.681.4,1.3.54,1.888h.015c.141-.585.343-1.221.575-1.883l.853-2.493h.7l-1.807,5.052Z" transform="translate(-420.637 -257.029)"/><path class="j" d="M460.744,259.805h-1.958v1.822h2.19v.545H458.13V257.12h2.736v.545h-2.074v1.595h1.958v.545Z" transform="translate(-425.272 -257.029)"/><path class="j" d="M465.45,257.146a7.475,7.475,0,0,1,1.252-.106,2.1,2.1,0,0,1,1.464.414,1.294,1.294,0,0,1,.4.964,1.326,1.326,0,0,1-.944,1.282v.025a1.271,1.271,0,0,1,.737,1.02,8.69,8.69,0,0,0,.389,1.388h-.676a6.216,6.216,0,0,1-.328-1.206c-.151-.7-.429-.959-1.02-.984h-.616v2.19h-.651v-4.987Zm.651,2.3h.666c.7,0,1.141-.384,1.141-.959,0-.651-.469-.939-1.161-.939a2.932,2.932,0,0,0-.646.05Z" transform="translate(-428.898 -256.989)"/></g></g></svg>